#!OML:ASF F:\VICON\USERDATA\INSTALL\rory3\rory3.ASF
:FULLY-SPECIFIED
:DEGREES
102
root 1.63694 17.4234 -33.9901 15.4297 -7.62783 -9.38958
lowerback -7.78041 4.28977 10.535
upperback -4.9612 5.01798 1.65943
thorax -0.118664 2.32069 -3.73317
lowerneck -16.8607 -2.92023 -7.55317
upperneck 25.2782 -3.21558 4.56488
head 11.1874 -1.62471 2.47664
rclavicle -1.56923e-014 5.31749e-015
rhumerus -33.2594 7.56924 -90.912
rradius 34.698
rwrist 3.41286
rhand -22.8724 -49.7072
rfingers 7.12502
rthumb 3.5663 -79.6571
lclavicle -1.56923e-014 5.31749e-015
lhumerus -47.207 0.452069 85.581
lradius 29.7256
lwrist 9.71414
lhand -31.8419 -19.3636
lfingers 7.12502
lthumb -5.0961 10.5551
rfemur -3.96078 7.37978 33.7952
rtibia 15.8936
rfoot -16.9786 -2.60817
rtoes -0.691535
lfemur -45.4152 -3.09344 -8.65991
ltibia 24.3376
lfoot -8.53081 11.6529
ltoes -2.52858
103
root 1.64191 17.4123 -33.8528 15.5612 -7.97932 -9.30636
lowerback -8.85027 4.44943 10.4755
upperback -4.68456 5.06655 1.62015
thorax 0.768456 2.39303 -3.64658
lowerneck -16.0258 -2.86328 -7.65722
upperneck 24.5542 -3.19776 4.73284
head 10.7564 -1.60938 2.55182
rclavicle -1.78844e-014 -1.31198e-014
rhumerus -33.1967 7.5145 -91.0255
rradius 34.656
rwrist 1.67833
rhand -22.3288 -52.5057
rfingers 7.12502
rthumb 4.09131 -82.4462
lclavicle -1.78844e-014 -1.31198e-014
lhumerus -47.0692 0.869882 85.2184
lradius 29.3609
lwrist 9.65509
lhand -30.4891 -22.7764
lfingers 7.12502
lthumb -3.78981 7.16967
rfemur -3.63103 7.67104 33.5347
rtibia 16.0082
rfoot -16.8179 -2.51412
rtoes -0.951892
lfemur -45.2808 -2.74498 -9.03927
ltibia 24.8231
lfoot -8.63692 11.6164
ltoes -1.3373
104
root 1.64729 17.4021 -33.7121 15.6166 -8.29645 -9.18663
lowerback -9.05574 4.45865 10.3444
upperback -4.59189 5.05469 1.59375
thorax 0.97072 2.40016 -3.58493
lowerneck -16.3197 -2.78332 -7.63442
upperneck 24.4685 -3.05779 4.70669
head 10.7709 -1.54226 2.55569
rclavicle 4.0945e-014 1.55549e-014
rhumerus -33.2187 7.49028 -91.1135
rradius 33.2913
rwrist 3.67829
rhand -24.0825 -49.1294
rfingers 7.12502
rthumb 2.39772 -79.0957
lclavicle 4.0945e-014 1.55549e-014
lhumerus -46.935 1.27196 84.9485
lradius 29.1148
lwrist 9.58431
lhand -30.1121 -24.3476
lfingers 7.12502
lthumb -3.42575 5.60462
rfemur -2.93266 7.85831 33.2607
rtibia 15.5298
rfoot -16.6482 -2.32755
rtoes -2.34628
lfemur -45.1357 -2.4538 -9.46908
ltibia 25.525
lfoot -8.37456 11.6211
ltoes -1.46006
105
root 1.65878 17.3922 -33.5629 15.6488 -8.28701 -8.98113
lowerback -8.66224 4.36271 10.1776
upperback -5.00514 5.02333 1.52933
thorax 0.307552 2.34508 -3.61139
lowerneck -16.3152 -2.6315 -7.5217
upperneck 24.6396 -2.87783 4.69866
head 10.8175 -1.45248 2.56217
rclavicle 1.0213e-014 6.55989e-015
rhumerus -33.9978 7.24522 -91.2549
rradius 33.6569
rwrist 2.47233
rhand -21.9254 -52.3746
rfingers 7.12502
rthumb 4.48076 -82.3072
lclavicle 1.0213e-014 6.55989e-015
lhumerus -47.5005 1.36344 84.7823
lradius 29.001
lwrist 9.49465
lhand -30.7545 -23.9936
lfingers 7.12502
lthumb -4.04611 5.94775
rfemur -2.48361 7.82939 32.9712
rtibia 15.4513
rfoot -16.412 -2.44331
rtoes -2.86496
lfemur -45.009 -2.24863 -10.1024
ltibia 26.1164
lfoot -7.48562 11.1596
ltoes -1.55944
106
root 1.6924 17.4117 -33.3204 14.8984 -10.2427 -9.23865
lowerback -8.81624 5.02896 10.7377
upperback -4.80874 5.82286 1.46154
thorax 0.761797 2.75802 -3.86667
lowerneck -15.1988 -2.59444 -7.52928
upperneck 24.5341 -2.88228 4.59767
head 10.5603 -1.47985 2.52882
rclavicle -4.48325e-014 1.10822e-014
rhumerus -35.1257 7.09044 -91.3967
rradius 33.4222
rwrist 2.83597
rhand -21.9782 -52.309
rfingers 7.12502
rthumb 4.42985 -82.2427
lclavicle -4.48325e-014 1.10822e-014
lhumerus -48.2803 1.35374 84.7265
lradius 29.0784
lwrist 9.52613
lhand -30.6513 -23.6429
lfingers 7.12502
lthumb -3.9464 6.30033
rfemur -0.530648 8.37142 32.465
rtibia 15.0942
rfoot -16.414 -0.897407
rtoes -4.07533
lfemur -43.1876 -1.92471 -10.0466
ltibia 26.815
lfoot -6.86741 12.3364
ltoes -0.64825
